<svg xmlns="http://www.w3.org/2000/svg" viewBox="0 0 63.69 19.94">
    <defs>
        <style>.cls-1{fill:currentColor;}.cls-2{fill:#1d71b8;}</style>
    </defs>
    <g id="Warstwa_2" data-name="Warstwa 2">
        <g id="Warstwa_1-2" data-name="Warstwa 1">
            <path class="cls-1"
                  d="M.08,12.6V.2H2.14L6.83,6.47a32.56,32.56,0,0,1,2.63,4l0,0a45,45,0,0,1-.22-5.09V.2h1.78V12.6H9.16L4.51,6.31A38.87,38.87,0,0,1,1.77,2.17l-.06,0c.1,1.56.15,3.05.15,5.11v5.3Z"/>
            <path class="cls-1" d="M22,6.79H16.27v4.46h6.34V12.6H14.38V.2h7.91V1.54h-6V5.46H22Z"/>
            <path class="cls-1"
                  d="M33.09,12.6,31.22,9.86c-.76-1-1.24-1.73-1.7-2.45h0A28.07,28.07,0,0,1,27.9,9.87L26.13,12.6H24l4.48-6.27L24.14.2h2.19l1.93,2.91c.55.81,1,1.43,1.35,2.09h.07c.41-.73.78-1.3,1.32-2.09L33,.2h2.17l-4.45,6,4.56,6.37Z"/>
            <path class="cls-1" d="M40.44,1.56H36V.2H46.82V1.56H42.35v11H40.44Z"/>
            <path class="cls-1"
                  d="M50.52.2h1.89V8.5c0,3.29-1.91,4.3-4.43,4.3a6.94,6.94,0,0,1-2-.3l.28-1.3a5.22,5.22,0,0,0,1.59.24c1.69,0,2.69-.65,2.69-3.07Z"/>
            <path class="cls-1"
                  d="M55.3,10.65a7.67,7.67,0,0,0,3.39.81c1.94,0,3.07-.87,3.07-2.12S61,7.52,59,6.88c-2.39-.72-3.87-1.77-3.87-3.51C55.13,1.43,57,0,59.87,0A7.52,7.52,0,0,1,63.1.61l-.52,1.3a6.66,6.66,0,0,0-2.78-.59c-2,0-2.76,1-2.76,1.86,0,1.16.89,1.73,2.91,2.39,2.48.81,3.74,1.82,3.74,3.64S62,12.78,58.56,12.78A8.74,8.74,0,0,1,54.82,12Z"/>
            <path class="cls-2"
                  d="M0,14.2a13.3,13.3,0,0,1,1.87-.12A4.2,4.2,0,0,1,4,14.5a1.12,1.12,0,0,1,.66,1c0,.55-.51,1-1.34,1.25v0c.75.14,1.63.58,1.63,1.43a1.38,1.38,0,0,1-.67,1.15,5.15,5.15,0,0,1-2.73.53A14.57,14.57,0,0,1,0,19.82Zm1,2.34H2c1.08,0,1.72-.41,1.72-1s-.71-.93-1.74-.93a7.15,7.15,0,0,0-.91,0Zm0,2.74a6.49,6.49,0,0,0,.86,0c1.06,0,2-.28,2-1.12s-.93-1.1-2-1.1H1Z"/>
            <path class="cls-2"
                  d="M13.13,16.92c0,2-1.65,3-3.68,3S5.89,18.76,5.89,17s1.57-3,3.68-3S13.13,15.23,13.13,16.92ZM7,17a2.32,2.32,0,0,0,2.52,2.31,2.36,2.36,0,1,0,0-4.7A2.33,2.33,0,0,0,7,17Z"/>
            <path class="cls-2" d="M15.48,14.12v5.72h-1V14.12Z"/>
            <path class="cls-2" d="M17.26,14.12h1v5.1h3.39v.62H17.26Z"/>
            <path class="cls-2" d="M26.9,17.16H23.83v2.06h3.43v.62H22.8V14.12h4.28v.62H23.83v1.81H26.9Z"/>
            <path class="cls-2"
                  d="M28.58,14.2a14.1,14.1,0,0,1,2-.12,4.14,4.14,0,0,1,2.29.47,1.26,1.26,0,0,1,.63,1.08c0,.76-.66,1.26-1.49,1.46v0a1.58,1.58,0,0,1,1.16,1.15,7,7,0,0,0,.61,1.57H32.68a6.16,6.16,0,0,1-.53-1.36c-.23-.79-.65-1.09-1.58-1.12h-1v2.48h-1Zm1,2.6h1c1.09,0,1.79-.43,1.79-1.08s-.75-1.06-1.83-1.07a5.22,5.22,0,0,0-1,.07Z"/>
            <path class="cls-2"
                  d="M34.9,14.19a16.15,16.15,0,0,1,2-.11,4.11,4.11,0,0,1,2.22.48,1.35,1.35,0,0,1,.69,1.19A1.43,1.43,0,0,1,39.16,17a4,4,0,0,1-2.42.63,5.16,5.16,0,0,1-.82-.05v2.29h-1Zm1,2.76a5,5,0,0,0,.85.06c1.23,0,2-.43,2-1.22s-.74-1.12-1.87-1.12a5.28,5.28,0,0,0-1,.06Z"/>
            <path class="cls-2" d="M41.15,14.12h1v5.1h3.38v.62h-4.4Z"/>
            <path class="cls-2"
                  d="M48,18l-.82,1.8H46.09l2.69-5.72H50l2.71,5.72h-1.1L50.78,18Zm2.6-.57-.78-1.65a10.12,10.12,0,0,1-.41-1h0c-.12.34-.25.68-.4,1l-.78,1.66Z"/>
            <path class="cls-2" d="M54.48,14.75H52.07v-.63h5.86v.63H55.51v5.09h-1Z"/>
            <path class="cls-2" d="M62.91,17.16H59.83v2.06h3.43v.62H58.81V14.12h4.27v.62H59.83v1.81h3.08Z"/>
        </g>
    </g>
</svg>
